<?xml version="1.0" encoding="UTF-8"?>
<svg xmlns="http://www.w3.org/2000/svg" width="800" height="1100" viewBox="0 0 800 1100" font-family="Helvetica, Arial, sans-serif">
  <rect x="0" y="0" width="800" height="1100" fill="white"/>
  <rect x="20" y="20" width="760" height="1060" fill="none" stroke="#e0e0e0" stroke-width="1" stroke-dasharray="3,3" rx="4"/>
  <text x="770" y="38" text-anchor="end" font-size="9" fill="#9e9e9e">A4 portrait page area (0.5in margins, ~aspect 0.75)</text>
  <text x="400.0" y="56" text-anchor="middle" font-size="20" font-weight="bold" fill="#D32F2F">Logical Network Diagram &#8212; Current v1.5.7 (BUG)</text>
  <text x="400.0" y="76" text-anchor="middle" font-size="12" font-style="italic" fill="#424242">Cluster m-pr-xpvast-a01 &#8212; 2 racks, 2 switches, 22 nodes, 44 edges in port_map</text>
  <text x="400.0" y="94" text-anchor="middle" font-size="11" font-weight="bold" fill="#D32F2F">Vote-based assignment puts BOTH switches in H1U12;</text>
  <text x="400.0" y="110" text-anchor="middle" font-size="11" font-weight="bold" fill="#D32F2F">manual_switch_placements ignored</text>
  <text x="400.0" y="130" text-anchor="middle" font-size="10" font-style="italic" fill="#424242">(no cabling validation; A/B-based coloring; no cross-rack edges in v1.5.7)</text>
  <line x1="113" y1="158" x2="169" y2="158" stroke="#0F9D58" stroke-width="3" opacity="0.85"/>
  <text x="177" y="162" font-size="10" fill="#212121">Network A</text>
  <line x1="271" y1="158" x2="327" y2="158" stroke="#4285F4" stroke-width="3" opacity="0.85"/>
  <text x="335" y="162" font-size="10" fill="#212121">Network B</text>
  <line x1="429" y1="158" x2="485" y2="158" stroke="#7B1FA2" stroke-width="3" stroke-dasharray="6,3"/>
  <text x="493" y="162" font-size="10" fill="#212121">IPL/MLAG</text>
  <line x1="582" y1="158" x2="638" y2="158" stroke="#757575" stroke-width="3" stroke-dasharray="6,3"/>
  <text x="646" y="162" font-size="10" fill="#212121">Spine</text>
  <text x="400.0" y="184" text-anchor="middle" font-size="9" font-style="italic" fill="#D32F2F">No cross-rack edge styling &#8226; No cabling validation</text>
  <text x="400.0" y="198" text-anchor="middle" font-size="9" font-style="italic" fill="#D32F2F">A/B classifier no longer matches subnet (vnetmap reports both A and B per switch)</text>
  <rect x="40" y="215" width="330" height="605" fill="#f5f5f5" stroke="#e0e0e0" stroke-width="1" rx="6"/>
  <text x="205.0" y="239" text-anchor="middle" font-size="13" font-weight="bold" fill="#616161">H1U11 (16U) &#8212; CBoxes</text>
  <rect x="430" y="215" width="330" height="605" fill="#f5f5f5" stroke="#e0e0e0" stroke-width="1" rx="6"/>
  <text x="595.0" y="239" text-anchor="middle" font-size="13" font-weight="bold" fill="#616161">H1U12 (10U) &#8212; DBoxes</text>
  <rect x="130" y="265" width="150" height="56" fill="#ffebee" stroke="#D32F2F" stroke-width="2" stroke-dasharray="6,4" rx="5"/>
  <text x="205" y="287" text-anchor="middle" font-size="11" font-weight="bold" fill="#D32F2F">[empty &#8212; BUG]</text>
  <text x="205" y="303" text-anchor="middle" font-size="9" fill="#D32F2F">should contain sw2</text>
  <text x="205" y="315" text-anchor="middle" font-size="9" fill="#D32F2F">per manual placement</text>
  <text x="670" y="259" text-anchor="middle" font-size="9" font-weight="bold" fill="#D32F2F">[BUG: sw2 misplaced]</text>
  <rect x="455" y="265" width="130" height="56" fill="#e8f5e9" stroke="#2F2042" stroke-width="1.2" rx="5"/>
  <text x="520" y="283" text-anchor="middle" font-size="10" font-weight="bold" fill="#212121">sw1 (10.103.0.8)</text>
  <text x="520" y="297" text-anchor="middle" font-size="8" fill="#424242">vote winner:</text>
  <text x="520" y="309" text-anchor="middle" font-size="8" fill="#424242">12 H1U12 + 10 H1U11</text>
  <rect x="605" y="265" width="130" height="56" fill="#e8f5e9" stroke="#D32F2F" stroke-width="2" rx="5"/>
  <text x="670" y="283" text-anchor="middle" font-size="10" font-weight="bold" fill="#212121">sw2 (10.103.0.9)</text>
  <text x="670" y="297" text-anchor="middle" font-size="8" font-weight="bold" fill="#D32F2F">misplaced &#8212;</text>
  <text x="670" y="309" text-anchor="middle" font-size="8" font-weight="bold" fill="#D32F2F">manual says H1U11</text>
  <line x1="585" y1="293.0" x2="605" y2="293.0" stroke="#7B1FA2" stroke-width="2" stroke-dasharray="6,3"/>
  <rect x="65" y="335" width="280" height="26" fill="#c8e6f8" stroke="#2F2042" stroke-width="1" rx="3"/>
  <text x="71" y="352" font-size="10" font-weight="bold" fill="#212121">CB1</text>
  <text x="113" y="352" font-size="9" fill="#424242">H1U11-CB1-U2-CN1</text>
  <text x="339" y="352" text-anchor="end" font-size="9" fill="#424242">U2-U3</text>
  <rect x="65" y="367" width="280" height="26" fill="#c8e6f8" stroke="#2F2042" stroke-width="1" rx="3"/>
  <text x="71" y="384" font-size="10" font-weight="bold" fill="#212121">CB2</text>
  <text x="113" y="384" font-size="9" fill="#424242">H1U11-CB2-U3-CN1</text>
  <text x="339" y="384" text-anchor="end" font-size="9" fill="#424242">U3-U4</text>
  <rect x="65" y="399" width="280" height="26" fill="#c8e6f8" stroke="#2F2042" stroke-width="1" rx="3"/>
  <text x="71" y="416" font-size="10" font-weight="bold" fill="#212121">CB3</text>
  <text x="113" y="416" font-size="9" fill="#424242">H1U11-CB3-U5-CN1</text>
  <text x="339" y="416" text-anchor="end" font-size="9" fill="#424242">U5-U6</text>
  <rect x="65" y="431" width="280" height="26" fill="#c8e6f8" stroke="#2F2042" stroke-width="1" rx="3"/>
  <text x="71" y="448" font-size="10" font-weight="bold" fill="#212121">CB4</text>
  <text x="113" y="448" font-size="9" fill="#424242">H1U11-CB4-U6-CN1</text>
  <text x="339" y="448" text-anchor="end" font-size="9" fill="#424242">U6-U7</text>
  <rect x="65" y="463" width="280" height="26" fill="#c8e6f8" stroke="#2F2042" stroke-width="1" rx="3"/>
  <text x="71" y="480" font-size="10" font-weight="bold" fill="#212121">CB5</text>
  <text x="113" y="480" font-size="9" fill="#424242">H1U11-CB5-U8-CN1</text>
  <text x="339" y="480" text-anchor="end" font-size="9" fill="#424242">U8-U9</text>
  <rect x="65" y="495" width="280" height="26" fill="#c8e6f8" stroke="#2F2042" stroke-width="1" rx="3"/>
  <text x="71" y="512" font-size="10" font-weight="bold" fill="#212121">CB6</text>
  <text x="113" y="512" font-size="9" fill="#424242">H1U11-CB6-U9-CN1</text>
  <text x="339" y="512" text-anchor="end" font-size="9" fill="#424242">U9-U10</text>
  <rect x="65" y="527" width="280" height="26" fill="#c8e6f8" stroke="#2F2042" stroke-width="1" rx="3"/>
  <text x="71" y="544" font-size="10" font-weight="bold" fill="#212121">CB7</text>
  <text x="113" y="544" font-size="9" fill="#424242">H1U11-CB7-U11-CN1</text>
  <text x="339" y="544" text-anchor="end" font-size="9" fill="#424242">U11-U12</text>
  <rect x="65" y="559" width="280" height="26" fill="#c8e6f8" stroke="#2F2042" stroke-width="1" rx="3"/>
  <text x="71" y="576" font-size="10" font-weight="bold" fill="#212121">CB8</text>
  <text x="113" y="576" font-size="9" fill="#424242">H1U11-CB8-U12-CN1</text>
  <text x="339" y="576" text-anchor="end" font-size="9" fill="#424242">U12-U13</text>
  <rect x="65" y="591" width="280" height="26" fill="#c8e6f8" stroke="#2F2042" stroke-width="1" rx="3"/>
  <text x="71" y="608" font-size="10" font-weight="bold" fill="#212121">CB9</text>
  <text x="113" y="608" font-size="9" fill="#424242">H1U11-CB9-U14-CN1</text>
  <text x="339" y="608" text-anchor="end" font-size="9" fill="#424242">U14-U15</text>
  <rect x="65" y="623" width="280" height="26" fill="#c8e6f8" stroke="#2F2042" stroke-width="1" rx="3"/>
  <text x="71" y="640" font-size="10" font-weight="bold" fill="#212121">CB10</text>
  <text x="113" y="640" font-size="9" fill="#424242">H1U11-CB10-U15-CN1</text>
  <text x="339" y="640" text-anchor="end" font-size="9" fill="#424242">U15-U16</text>
  <rect x="455" y="349" width="280" height="26" fill="#ffe0b2" stroke="#2F2042" stroke-width="1" rx="3"/>
  <text x="461" y="366" font-size="10" font-weight="bold" fill="#212121">DB1</text>
  <text x="503" y="366" font-size="9" fill="#424242">H1U12-DB1 / DN1+DN2</text>
  <text x="729" y="366" text-anchor="end" font-size="9" fill="#424242">U2-U3</text>
  <rect x="455" y="401" width="280" height="26" fill="#ffe0b2" stroke="#2F2042" stroke-width="1" rx="3"/>
  <text x="461" y="418" font-size="10" font-weight="bold" fill="#212121">DB2</text>
  <text x="503" y="418" font-size="9" fill="#424242">H1U12-DB2 / DN1+DN2</text>
  <text x="729" y="418" text-anchor="end" font-size="9" fill="#424242">U3-U4</text>
  <rect x="455" y="453" width="280" height="26" fill="#ffe0b2" stroke="#2F2042" stroke-width="1" rx="3"/>
  <text x="461" y="470" font-size="10" font-weight="bold" fill="#212121">DB3</text>
  <text x="503" y="470" font-size="9" fill="#424242">H1U12-DB3 / DN1+DN2</text>
  <text x="729" y="470" text-anchor="end" font-size="9" fill="#424242">U5-U6</text>
  <rect x="455" y="505" width="280" height="26" fill="#ffe0b2" stroke="#2F2042" stroke-width="1" rx="3"/>
  <text x="461" y="522" font-size="10" font-weight="bold" fill="#212121">DB4</text>
  <text x="503" y="522" font-size="9" fill="#424242">H1U12-DB4 / DN1+DN2</text>
  <text x="729" y="522" text-anchor="end" font-size="9" fill="#424242">U6-U7</text>
  <rect x="455" y="557" width="280" height="26" fill="#ffe0b2" stroke="#2F2042" stroke-width="1" rx="3"/>
  <text x="461" y="574" font-size="10" font-weight="bold" fill="#212121">DB5</text>
  <text x="503" y="574" font-size="9" fill="#424242">H1U12-DB5 / DN1+DN2</text>
  <text x="729" y="574" text-anchor="end" font-size="9" fill="#424242">U8-U9</text>
  <rect x="455" y="609" width="280" height="26" fill="#ffe0b2" stroke="#2F2042" stroke-width="1" rx="3"/>
  <text x="461" y="626" font-size="10" font-weight="bold" fill="#212121">DB6</text>
  <text x="503" y="626" font-size="9" fill="#424242">H1U12-DB6 / DN1+DN2</text>
  <text x="729" y="626" text-anchor="end" font-size="9" fill="#424242">U9-U10</text>
  <path d="M 455.0,362.0 C 429.0,362.0 508.0,371.0 508.0,321.0" fill="none" stroke="#0F9D58" stroke-width="2" opacity="0.85"/>
  <path d="M 735.0,362.0 C 761.0,362.0 682.0,371.0 682.0,321.0" fill="none" stroke="#4285F4" stroke-width="2" opacity="0.85"/>
  <path d="M 455.0,414.0 C 429.0,414.0 512.0,371.0 512.0,321.0" fill="none" stroke="#0F9D58" stroke-width="2" opacity="0.85"/>
  <path d="M 735.0,414.0 C 761.0,414.0 678.0,371.0 678.0,321.0" fill="none" stroke="#4285F4" stroke-width="2" opacity="0.85"/>
  <path d="M 455.0,466.0 C 429.0,466.0 516.0,371.0 516.0,321.0" fill="none" stroke="#0F9D58" stroke-width="2" opacity="0.85"/>
  <path d="M 735.0,466.0 C 761.0,466.0 674.0,371.0 674.0,321.0" fill="none" stroke="#4285F4" stroke-width="2" opacity="0.85"/>
  <path d="M 455.0,518.0 C 429.0,518.0 520.0,371.0 520.0,321.0" fill="none" stroke="#0F9D58" stroke-width="2" opacity="0.85"/>
  <path d="M 735.0,518.0 C 761.0,518.0 670.0,371.0 670.0,321.0" fill="none" stroke="#4285F4" stroke-width="2" opacity="0.85"/>
  <path d="M 455.0,570.0 C 429.0,570.0 524.0,371.0 524.0,321.0" fill="none" stroke="#0F9D58" stroke-width="2" opacity="0.85"/>
  <path d="M 735.0,570.0 C 761.0,570.0 666.0,371.0 666.0,321.0" fill="none" stroke="#4285F4" stroke-width="2" opacity="0.85"/>
  <path d="M 455.0,622.0 C 429.0,622.0 528.0,371.0 528.0,321.0" fill="none" stroke="#0F9D58" stroke-width="2" opacity="0.85"/>
  <path d="M 735.0,622.0 C 761.0,622.0 662.0,371.0 662.0,321.0" fill="none" stroke="#4285F4" stroke-width="2" opacity="0.85"/>
  <path d="M 32,331 L 22,331 L 22,649 L 32,649" fill="none" stroke="#D32F2F" stroke-width="2.5"/>
  <text x="16" y="490.0" text-anchor="middle" font-size="10" font-weight="bold" fill="#D32F2F" transform="rotate(-90 16 490.0)">BUG: 20 cross-rack edges silently dropped</text>
  <text x="52" y="798" font-size="10" font-style="italic" fill="#D32F2F">10 CBoxes &#215; 1 CNode</text>
  <text x="52" y="812" font-size="9" fill="#D32F2F">0 of 20 edges drawn (all dropped)</text>
  <text x="442" y="798" font-size="10" font-style="italic" fill="#424242">6 DBoxes &#215; 2 DNodes</text>
  <text x="442" y="812" font-size="9" fill="#D32F2F">24 of 24 same-rack edges drawn (all solid)</text>
  <rect x="156" y="840" width="110" height="22" rx="11" ry="11" fill="#e6f4ea" stroke="#0F9D58" stroke-width="1.5"/>
  <line x1="166" y1="851.0" x2="182" y2="851.0" stroke="#0F9D58" stroke-width="2.5"/>
  <text x="188" y="855.0" font-size="9" font-family="Helvetica, Arial, sans-serif" font-weight="bold" fill="#0F9D58">Network A</text>
  <rect x="282" y="840" width="110" height="22" rx="11" ry="11" fill="#e3f2fd" stroke="#4285F4" stroke-width="1.5"/>
  <line x1="292" y1="851.0" x2="308" y2="851.0" stroke="#4285F4" stroke-width="2.5"/>
  <text x="314" y="855.0" font-size="9" font-family="Helvetica, Arial, sans-serif" font-weight="bold" fill="#4285F4">Network B</text>
  <rect x="408" y="840" width="110" height="22" rx="11" ry="11" fill="#f3e5f5" stroke="#7B1FA2" stroke-width="1.5"/>
  <line x1="418" y1="851.0" x2="434" y2="851.0" stroke="#7B1FA2" stroke-width="2.5"/>
  <text x="440" y="855.0" font-size="9" font-family="Helvetica, Arial, sans-serif" font-weight="bold" fill="#7B1FA2">IPL/MLAG</text>
  <rect x="534" y="840" width="110" height="22" rx="11" ry="11" fill="#f5f5f5" stroke="#757575" stroke-width="1.5"/>
  <line x1="544" y1="851.0" x2="560" y2="851.0" stroke="#757575" stroke-width="2.5"/>
  <text x="566" y="855.0" font-size="9" font-family="Helvetica, Arial, sans-serif" font-weight="bold" fill="#757575">Spine</text>
  <text x="400.0" y="880" text-anchor="middle" font-size="9" font-style="italic" fill="#424242">Mockup uses smooth bezier curves for clarity. Production v1.5.7 renderer uses orthogonal waypoints;</text>
  <text x="400.0" y="896" text-anchor="middle" font-size="9" font-style="italic" fill="#424242">visual outcome (missing switch in H1U11, no edges from CBoxes, all edges solid) is identical.</text>
</svg>
